<svg width="902" height="136" viewBox="0 0 902 136" fill="none" xmlns="http://www.w3.org/2000/svg">
<path d="M24.55 28.775L26.5 29.15V104H0.4V5H35.8L71.575 79.7L69.7 80.075V5H95.725V104H60.175L24.55 28.775Z" fill="#FF00AF"/>
<path d="M144.045 105.8C137.145 105.8 131.02 104.425 125.67 101.675C120.32 98.925 116.12 95.125 113.07 90.275C110.02 85.375 108.495 79.75 108.495 73.4C108.495 67.05 110.02 61.425 113.07 56.525C116.12 51.575 120.32 47.7 125.67 44.9C131.02 42.05 137.145 40.625 144.045 40.625C150.895 40.625 156.945 42.05 162.195 44.9C167.495 47.7 171.62 51.575 174.57 56.525C177.57 61.425 179.07 67.05 179.07 73.4C179.07 79.75 177.57 85.375 174.57 90.275C171.62 95.125 167.495 98.925 162.195 101.675C156.945 104.425 150.895 105.8 144.045 105.8ZM144.045 84.125C146.095 84.125 147.87 83.7 149.37 82.85C150.87 81.95 152.02 80.675 152.82 79.025C153.62 77.375 154.02 75.45 154.02 73.25C154.02 71.1 153.62 69.2 152.82 67.55C152.02 65.9 150.87 64.625 149.37 63.725C147.87 62.775 146.095 62.3 144.045 62.3C141.945 62.3 140.145 62.775 138.645 63.725C137.145 64.625 135.97 65.9 135.12 67.55C134.27 69.2 133.845 71.1 133.845 73.25C133.845 75.45 134.27 77.375 135.12 79.025C135.97 80.675 137.145 81.95 138.645 82.85C140.145 83.7 141.945 84.125 144.045 84.125ZM184.524 42.425H194.424V17.15H220.674V42.425H233.724V64.1H220.674V76.1C220.674 78.25 220.949 80.1 221.499 81.65C222.099 83.15 223.349 83.9 225.249 83.9C226.399 83.9 227.424 83.65 228.324 83.15C229.224 82.6 229.774 82.225 229.974 82.025L238.824 100.775C238.424 101.075 237.199 101.65 235.149 102.5C233.149 103.3 230.599 104.05 227.499 104.75C224.449 105.45 221.049 105.8 217.299 105.8C210.649 105.8 205.174 103.975 200.874 100.325C196.574 96.625 194.424 90.95 194.424 83.3V64.1H184.524V42.425ZM246.156 5H278.406C288.956 5 297.706 7.125 304.656 11.375C311.656 15.575 316.906 21.4 320.406 28.85C323.906 36.3 325.656 44.825 325.656 54.425C325.656 64.075 323.906 72.625 320.406 80.075C316.906 87.525 311.656 93.375 304.656 97.625C297.706 101.875 288.956 104 278.406 104H246.156V5ZM272.256 28.025V80.975H276.081C280.881 80.975 284.881 79.825 288.081 77.525C291.331 75.175 293.781 72 295.431 68C297.131 64 297.981 59.525 297.981 54.575C297.981 49.575 297.156 45.075 295.506 41.075C293.856 37.075 291.406 33.9 288.156 31.55C284.906 29.2 280.881 28.025 276.081 28.025H272.256ZM338.286 5H374.736C380.436 5 385.711 5.79999 390.561 7.39999C395.461 9 399.386 11.575 402.336 15.125C405.336 18.675 406.836 23.425 406.836 29.375C406.836 33.175 406.111 36.6 404.661 39.65C403.261 42.65 401.336 45.125 398.886 47.075C396.486 48.975 393.786 50.275 390.786 50.975C393.486 51.375 396.036 52.15 398.436 53.3C400.836 54.45 402.936 56.025 404.736 58.025C406.586 59.975 408.036 62.425 409.086 65.375C410.136 68.325 410.661 71.775 410.661 75.725C410.661 81.325 409.361 86.25 406.761 90.5C404.211 94.75 400.511 98.075 395.661 100.475C390.811 102.825 384.961 104 378.111 104H338.286V5ZM364.386 83.3H371.211C373.811 83.3 375.986 82.95 377.736 82.25C379.536 81.55 380.886 80.45 381.786 78.95C382.686 77.45 383.136 75.525 383.136 73.175C383.136 69.575 382.061 67.075 379.911 65.675C377.761 64.275 374.786 63.575 370.986 63.575H364.386V83.3ZM364.386 43.325H370.611C372.811 43.325 374.661 43 376.161 42.35C377.711 41.65 378.886 40.625 379.686 39.275C380.536 37.875 380.961 36.15 380.961 34.1C380.961 30.7 380.011 28.45 378.111 27.35C376.211 26.25 373.586 25.7 370.236 25.7H364.386V43.325ZM470.022 104V94.775C469.522 95.725 468.397 97.1 466.647 98.9C464.897 100.65 462.572 102.25 459.672 103.7C456.822 105.1 453.472 105.8 449.622 105.8C443.522 105.8 438.247 104.3 433.797 101.3C429.347 98.3 425.897 94.325 423.447 89.375C421.047 84.425 419.847 79.05 419.847 73.25C419.847 67.45 421.047 62.075 423.447 57.125C425.897 52.175 429.347 48.2 433.797 45.2C438.247 42.15 443.522 40.625 449.622 40.625C453.272 40.625 456.447 41.175 459.147 42.275C461.897 43.375 464.147 44.675 465.897 46.175C467.697 47.675 468.972 49.1 469.722 50.45V42.425H496.122V104H470.022ZM445.872 73.25C445.872 75.45 446.397 77.475 447.447 79.325C448.497 81.125 449.922 82.55 451.722 83.6C453.522 84.65 455.572 85.175 457.872 85.175C460.172 85.175 462.197 84.65 463.947 83.6C465.747 82.55 467.147 81.125 468.147 79.325C469.197 77.475 469.722 75.45 469.722 73.25C469.722 71.05 469.197 69.05 468.147 67.25C467.147 65.4 465.747 63.95 463.947 62.9C462.197 61.8 460.172 61.25 457.872 61.25C455.572 61.25 453.522 61.8 451.722 62.9C449.922 63.95 448.497 65.4 447.447 67.25C446.397 69.05 445.872 71.05 445.872 73.25ZM535.429 105.8C529.329 105.8 524.104 104.3 519.754 101.3C515.404 98.3 512.029 94.325 509.629 89.375C507.279 84.425 506.104 79.05 506.104 73.25C506.104 67.45 507.279 62.075 509.629 57.125C512.029 52.175 515.404 48.2 519.754 45.2C524.104 42.15 529.329 40.625 535.429 40.625C539.129 40.625 542.429 41.175 545.329 42.275C548.229 43.325 550.579 44.625 552.379 46.175C554.229 47.675 555.404 49.1 555.904 50.45V0.799996H582.379V104H556.129V94.775C554.979 96.725 553.329 98.55 551.179 100.25C549.079 101.9 546.654 103.225 543.904 104.225C541.204 105.275 538.379 105.8 535.429 105.8ZM543.904 85.175C546.254 85.175 548.329 84.65 550.129 83.6C551.929 82.55 553.329 81.125 554.329 79.325C555.379 77.475 555.904 75.45 555.904 73.25C555.904 71.05 555.379 69.05 554.329 67.25C553.329 65.4 551.929 63.95 550.129 62.9C548.329 61.8 546.254 61.25 543.904 61.25C541.654 61.25 539.629 61.8 537.829 62.9C536.029 63.95 534.604 65.4 533.554 67.25C532.554 69.05 532.054 71.05 532.054 73.25C532.054 75.45 532.554 77.475 533.554 79.325C534.604 81.125 536.029 82.55 537.829 83.6C539.629 84.65 541.654 85.175 543.904 85.175ZM643.229 48.05H693.854V54.65C693.854 61.85 692.679 68.55 690.329 74.75C687.979 80.9 684.579 86.325 680.129 91.025C675.729 95.675 670.454 99.3 664.304 101.9C658.154 104.5 651.304 105.8 643.754 105.8C635.904 105.8 628.829 104.5 622.529 101.9C616.229 99.25 610.804 95.6 606.254 90.95C601.754 86.25 598.279 80.8 595.829 74.6C593.429 68.35 592.229 61.625 592.229 54.425C592.229 47.275 593.429 40.6 595.829 34.4C598.279 28.15 601.754 22.7 606.254 18.05C610.804 13.35 616.229 9.7 622.529 7.1C628.829 4.49999 635.904 3.19999 643.754 3.19999C650.504 3.19999 656.404 3.94999 661.454 5.45C666.504 6.9 670.779 8.79999 674.279 11.15C677.829 13.5 680.779 16.075 683.129 18.875C685.479 21.625 687.379 24.25 688.829 26.75L663.854 38.225C662.204 35.475 659.829 33 656.729 30.8C653.629 28.6 649.304 27.5 643.754 27.5C640.104 27.5 636.779 28.225 633.779 29.675C630.829 31.075 628.279 33.025 626.129 35.525C623.979 37.975 622.329 40.825 621.179 44.075C620.029 47.325 619.454 50.775 619.454 54.425C619.454 58.125 620.029 61.6 621.179 64.85C622.329 68.1 623.979 70.975 626.129 73.475C628.279 75.925 630.829 77.85 633.779 79.25C636.779 80.65 640.104 81.35 643.754 81.35C646.754 81.35 649.479 81.05 651.929 80.45C654.379 79.85 656.479 78.95 658.229 77.75C659.979 76.55 661.379 75.125 662.429 73.475C663.479 71.775 664.129 69.875 664.379 67.775H643.229V48.05ZM731.146 69.95C731.146 74.25 731.896 77.7 733.396 80.3C734.896 82.85 737.571 84.125 741.421 84.125C745.321 84.125 748.021 82.85 749.521 80.3C751.021 77.7 751.771 74.25 751.771 69.95V42.425H777.871V72.65C777.871 79.45 776.446 85.35 773.596 90.35C770.746 95.3 766.596 99.125 761.146 101.825C755.746 104.475 749.171 105.8 741.421 105.8C733.721 105.8 727.171 104.475 721.771 101.825C716.371 99.125 712.221 95.3 709.321 90.35C706.471 85.35 705.046 79.45 705.046 72.65V42.425H731.146V69.95ZM823.234 81.2L838.309 42.425H864.259L821.584 135.2H795.109L809.434 104L783.634 42.425H809.959L823.234 81.2ZM886.018 105.8C881.918 105.8 878.393 104.35 875.443 101.45C872.543 98.5 871.093 94.975 871.093 90.875C871.093 86.675 872.543 83.125 875.443 80.225C878.393 77.275 881.918 75.8 886.018 75.8C890.168 75.8 893.693 77.275 896.593 80.225C899.543 83.125 901.018 86.675 901.018 90.875C901.018 94.975 899.543 98.5 896.593 101.45C893.693 104.35 890.168 105.8 886.018 105.8Z" fill="white"/>
</svg>
